<?xml version="1.0" encoding="UTF-8" standalone="no"?>
<!DOCTYPE svg PUBLIC "-//W3C//DTD SVG 1.1//EN" "http://www.w3.org/Graphics/SVG/1.1/DTD/svg11.dtd">
<svg xmlns="http://www.w3.org/2000/svg" version="1.1" viewBox="0.00 0.00 128.00 128.00">
<path fill="#000000" d="
  M 38.41 39.25
  L 38.42 86.76
  A 0.38 0.37 9.9 0 1 37.91 87.11
  C 24.55 82.47 15.08 70.05 13.22 56.48
  C 10.87 39.36 19.81 23.56 35.31 16.27
  C 44.21 12.07 55.36 11.70 64.61 15.24
  Q 80.39 21.27 87.21 37.80
  A 0.44 0.44 0.0 0 1 86.80 38.41
  L 39.25 38.42
  Q 38.41 38.42 38.41 39.25
  Z"
/>
<path fill="#ffffff" d="
  M 89.39 47.56
  C 91.53 71.76 71.64 91.53 47.55 89.39
  Q 46.96 89.33 46.96 88.74
  L 46.95 47.50
  Q 46.95 46.96 47.50 46.96
  L 88.74 46.96
  Q 89.34 46.96 89.39 47.56
  Z"
/>
<path fill="#000000" d="
  M 47.54 97.95
  C 59.00 98.71 70.69 95.59 79.66 88.44
  Q 99.20 72.85 98.01 47.49
  Q 97.99 46.95 98.53 46.95
  L 114.59 46.96
  Q 115.22 46.96 115.22 47.59
  L 115.22 115.00
  A 0.22 0.22 0.0 0 1 115.00 115.22
  L 47.21 115.22
  Q 46.96 115.22 46.96 114.96
  L 46.95 98.51
  Q 46.95 97.92 47.54 97.95
  Z"
/>
</svg>